# This file uses centimeters as units for non-parametric coordinates.

g default
v -0.056151 0.231308 -0.027041
v -0.038858 0.231308 -0.048726
v -0.013868 0.231308 -0.060760
v 0.013868 0.231308 -0.060760
v 0.038858 0.231308 -0.048726
v 0.056151 0.231308 -0.027041
v 0.062323 0.231308 -0.000000
v 0.056151 0.231308 0.027041
v 0.038858 0.231308 0.048726
v 0.013868 0.231308 0.060760
v -0.013868 0.231308 0.060760
v -0.038858 0.231308 0.048726
v -0.056151 0.231308 0.027041
v -0.062323 0.231308 -0.000000
v -0.099004 0.198466 -0.047678
v -0.068513 0.198466 -0.085912
v -0.024452 0.198466 -0.107131
v 0.024452 0.198466 -0.107131
v 0.068513 0.198466 -0.085912
v 0.099004 0.198466 -0.047678
v 0.109886 0.198466 -0.000000
v 0.099004 0.198466 0.047678
v 0.068513 0.198466 0.085912
v 0.024452 0.198466 0.107131
v -0.024452 0.198466 0.107131
v -0.068513 0.198466 0.085912
v -0.099004 0.198466 0.047678
v -0.109886 0.198466 -0.000000
v -0.123944 0.158272 -0.059688
v -0.085772 0.158272 -0.107554
v -0.030612 0.158272 -0.134118
v 0.030612 0.158272 -0.134118
v 0.085772 0.158272 -0.107554
v 0.123944 0.158272 -0.059688
v 0.137567 0.158272 -0.000000
v 0.123944 0.158272 0.059688
v 0.085772 0.158272 0.107554
v 0.030612 0.158272 0.134118
v -0.030612 0.158272 0.134118
v -0.085772 0.158272 0.107554
v -0.123944 0.158272 0.059688
v -0.137567 0.158272 -0.000000
v -0.143210 0.110141 -0.068966
v -0.099105 0.110141 -0.124273
v -0.035370 0.110141 -0.154966
v 0.035370 0.110141 -0.154966
v 0.099105 0.110141 -0.124273
v 0.143210 0.110141 -0.068966
v 0.158951 0.110141 -0.000000
v 0.143210 0.110141 0.068966
v 0.099105 0.110141 0.124273
v 0.035370 0.110141 0.154966
v -0.035370 0.110141 0.154966
v -0.099105 0.110141 0.124273
v -0.143210 0.110141 0.068966
v -0.158951 0.110141 -0.000000
v -0.157240 0.056487 -0.075723
v -0.108814 0.056487 -0.136448
v -0.038835 0.056487 -0.170148
v 0.038835 0.056487 -0.170148
v 0.108814 0.056487 -0.136448
v 0.157240 0.056487 -0.075723
v 0.174523 0.056487 -0.000000
v 0.157240 0.056487 0.075723
v 0.108814 0.056487 0.136448
v 0.038835 0.056487 0.170148
v -0.038835 0.056487 0.170148
v -0.108814 0.056487 0.136448
v -0.157240 0.056487 0.075723
v -0.174523 0.056487 -0.000000
v -0.166592 0.000000 -0.080226
v -0.115285 0.000000 -0.144563
v -0.041145 0.000000 -0.180267
v 0.041145 0.000000 -0.180267
v 0.115285 0.000000 -0.144563
v 0.166592 -0.000000 -0.080226
v 0.184903 -0.000000 -0.000000
v 0.166592 -0.000000 0.080226
v 0.115285 0.000000 0.144563
v 0.041145 0.000000 0.180267
v -0.041145 0.000000 0.180267
v -0.115285 0.000000 0.144563
v -0.166592 0.000000 0.080226
v -0.184903 0.000000 -0.000000
v -0.170969 -0.056487 -0.082334
v -0.118314 -0.056487 -0.148361
v -0.042226 -0.056487 -0.185004
v 0.042226 -0.056487 -0.185004
v 0.118314 -0.056487 -0.148362
v 0.170969 -0.056487 -0.082334
v 0.189761 -0.056487 -0.000000
v 0.170969 -0.056487 0.082334
v 0.118314 -0.056487 0.148361
v 0.042226 -0.056487 0.185004
v -0.042226 -0.056487 0.185004
v -0.118314 -0.056487 0.148362
v -0.170969 -0.056487 0.082334
v -0.189761 -0.056487 -0.000000
v -0.168654 -0.110141 -0.081220
v -0.116712 -0.110141 -0.146353
v -0.041654 -0.110141 -0.182499
v 0.041654 -0.110141 -0.182499
v 0.116712 -0.110141 -0.146353
v 0.168654 -0.110141 -0.081220
v 0.187192 -0.110141 -0.000000
v 0.168654 -0.110141 0.081220
v 0.116712 -0.110141 0.146353
v 0.041654 -0.110141 0.182499
v -0.041654 -0.110141 0.182499
v -0.116712 -0.110141 0.146353
v -0.168654 -0.110141 0.081220
v -0.187192 -0.110141 -0.000000
v -0.156879 -0.158272 -0.075549
v -0.108563 -0.158272 -0.136134
v -0.038746 -0.158272 -0.169757
v 0.038746 -0.158272 -0.169757
v 0.108563 -0.158272 -0.136134
v 0.156879 -0.158272 -0.075549
v 0.174122 -0.158272 -0.000000
v 0.156879 -0.158272 0.075549
v 0.108563 -0.158272 0.136134
v 0.038746 -0.158272 0.169757
v -0.038746 -0.158272 0.169757
v -0.108563 -0.158272 0.136134
v -0.156879 -0.158272 0.075549
v -0.174122 -0.158272 -0.000000
v -0.133157 -0.198466 -0.064125
v -0.092148 -0.198466 -0.115549
v -0.032887 -0.198466 -0.144088
v 0.032887 -0.198466 -0.144088
v 0.092147 -0.198466 -0.115549
v 0.133157 -0.198466 -0.064125
v 0.147793 -0.198466 -0.000000
v 0.133157 -0.198466 0.064125
v 0.092148 -0.198466 0.115549
v 0.032887 -0.198466 0.144088
v -0.032887 -0.198466 0.144088
v -0.092148 -0.198466 0.115549
v -0.133157 -0.198466 0.064125
v -0.147793 -0.198466 -0.000000
v -0.096961 -0.228709 -0.046694
v -0.067099 -0.228709 -0.084139
v -0.023947 -0.228709 -0.104920
v 0.023947 -0.228709 -0.104920
v 0.067099 -0.228709 -0.084139
v 0.096961 -0.228709 -0.046694
v 0.107618 -0.228709 -0.000000
v 0.096961 -0.228709 0.046694
v 0.067099 -0.228709 0.084139
v 0.023947 -0.228709 0.104920
v -0.023947 -0.228709 0.104920
v -0.067099 -0.228709 0.084139
v -0.096961 -0.228709 0.046694
v -0.107618 -0.228709 -0.000000
v -0.050796 -0.247484 -0.024462
v -0.035152 -0.247484 -0.044079
v -0.012546 -0.247484 -0.054966
v 0.012546 -0.247484 -0.054966
v 0.035152 -0.247484 -0.044079
v 0.050796 -0.247484 -0.024462
v 0.056379 -0.247484 -0.000000
v 0.050796 -0.247484 0.024462
v 0.035152 -0.247484 0.044079
v 0.012546 -0.247484 0.054966
v -0.012546 -0.247484 0.054966
v -0.035152 -0.247484 0.044079
v -0.050796 -0.247484 0.024462
v -0.056379 -0.247484 -0.000000
v -0.000000 0.245604 -0.000000
v 0.000000 -0.253848 -0.000000
vt 0.382543 0.391205
vt 0.373074 0.397623
vt 0.372085 0.396655
vt 0.380915 0.389409
vt 0.368778 0.395855
vt 0.375134 0.387911
vt 0.363794 0.395390
vt 0.366292 0.387034
vt 0.358147 0.395360
vt 0.356231 0.386978
vt 0.353008 0.395772
vt 0.347105 0.387754
vt 0.349428 0.396536
vt 0.340828 0.389188
vt 0.348107 0.397494
vt 0.338610 0.390966
vt 0.349261 0.398450
vt 0.340751 0.392723
vt 0.352618 0.399220
vt 0.346688 0.394123
vt 0.357500 0.399659
vt 0.355210 0.394916
vt 0.362967 0.399687
vt 0.364717 0.394966
vt 0.367986 0.399299
vt 0.373471 0.394266
vt 0.371596 0.398566
vt 0.379840 0.392933
vt 0.386047 0.380981
vt 0.387997 0.383357
vt 0.378853 0.378986
vt 0.367760 0.377814
vt 0.355103 0.377739
vt 0.343646 0.378778
vt 0.335823 0.380687
vt 0.333131 0.383041
vt 0.335883 0.385352
vt 0.343319 0.387184
vt 0.353914 0.388218
vt 0.365706 0.388283
vt 0.376583 0.387370
vt 0.384548 0.385628
vt 0.389983 0.371081
vt 0.392157 0.373998
vt 0.381720 0.368620
vt 0.368894 0.367170
vt 0.354230 0.367077
vt 0.340977 0.368363
vt 0.331980 0.370719
vt 0.328948 0.373612
vt 0.332186 0.376438
vt 0.340772 0.378669
vt 0.352937 0.379923
vt 0.366451 0.380003
vt 0.378934 0.378895
vt 0.388121 0.376775
vt 0.392808 0.360213
vt 0.395132 0.363623
vt 0.383785 0.357329
vt 0.369712 0.355624
vt 0.353599 0.355514
vt 0.339053 0.357026
vt 0.329219 0.359790
vt 0.325954 0.363172
vt 0.329551 0.366466
vt 0.338962 0.369057
vt 0.352243 0.370511
vt 0.366978 0.370603
vt 0.380603 0.369319
vt 0.390664 0.366857
vt 0.394643 0.348929
vt 0.397057 0.352767
vt 0.385129 0.345675
vt 0.370244 0.343749
vt 0.353187 0.343625
vt 0.337799 0.345333
vt 0.327424 0.348452
vt 0.324014 0.352260
vt 0.327849 0.355960
vt 0.337795 0.358866
vt 0.351795 0.360494
vt 0.367317 0.360597
vt 0.381677 0.359160
vt 0.392306 0.356399
vt 0.395433 0.337813
vt 0.397885 0.341978
vt 0.385708 0.334278
vt 0.370473 0.332185
vt 0.353007 0.332050
vt 0.337255 0.333906
vt 0.326648 0.337294
vt 0.323177 0.341428
vt 0.327115 0.345440
vt 0.337292 0.348588
vt 0.351602 0.350351
vt 0.367461 0.350463
vt 0.382138 0.348907
vt 0.393011 0.345916
vt 0.394837 0.327472
vt 0.397261 0.331788
vt 0.385270 0.323812
vt 0.370298 0.321646
vt 0.353138 0.321507
vt 0.337659 0.323428
vt 0.327225 0.326935
vt 0.323800 0.331217
vt 0.327661 0.335377
vt 0.337665 0.338642
vt 0.351743 0.340472
vt 0.367350 0.340587
vt 0.381790 0.338972
vt 0.392479 0.335870
vt 0.392306 0.318504
vt 0.394604 0.322684
vt 0.383415 0.314970
vt 0.369559 0.312883
vt 0.353701 0.312748
vt 0.339381 0.314599
vt 0.329693 0.317985
vt 0.326468 0.322130
vt 0.330002 0.326170
vt 0.339269 0.329349
vt 0.352355 0.331134
vt 0.366878 0.331247
vt 0.380304 0.329671
vt 0.390212 0.326650
vt 0.733759 0.862199
vt 0.723585 0.845520
vt 0.710482 0.828176
vt 0.719311 0.842575
vt 0.695647 0.831932
vt 0.686846 0.816518
vt 0.655254 0.824601
vt 0.652933 0.810255
vt 0.611242 0.825353
vt 0.616053 0.810896
vt 0.573565 0.833996
vt 0.584380 0.818284
vt 0.550304 0.848397
vt 0.564628 0.830652
vt 0.545598 0.865256
vt 0.560387 0.845224
vt 0.559260 0.881103
vt 0.571704 0.859014
vt 0.587690 0.893059
vt 0.595691 0.869478
vt 0.625202 0.899186
vt 0.627549 0.874860
vt 0.665128 0.898568
vt 0.661517 0.874316
vt 0.700599 0.891295
vt 0.691616 0.867930
vt 0.725191 0.878466
vt 0.712316 0.856713
vt 0.690941 0.817548
vt 0.697601 0.828130
vt 0.673751 0.809059
vt 0.649364 0.804527
vt 0.622919 0.804990
vt 0.600103 0.810341
vt 0.585665 0.819360
vt 0.582304 0.830088
vt 0.590273 0.840343
vt 0.607648 0.848192
vt 0.630954 0.852252
vt 0.655867 0.851841
vt 0.677855 0.847028
vt 0.692791 0.838625
vt 0.360597 0.400384
vt 0.666489 0.813912
vt 0.670136 0.819464
vt 0.657477 0.809508
vt 0.644870 0.807175
vt 0.631248 0.807413
vt 0.619428 0.810170
vt 0.611813 0.814858
vt 0.609872 0.820500
vt 0.613878 0.825962
vt 0.622939 0.830189
vt 0.635251 0.832392
vt 0.648455 0.832168
vt 0.660049 0.829560
vt 0.667799 0.825042
vt 0.640020 0.816898
vn -0.659885 0.680856 -0.317784
vn -0.444441 0.869864 -0.214031
vn -0.307563 0.869864 -0.385671
vn -0.456655 0.680856 -0.572627
vn -0.109768 0.869864 -0.480924
vn -0.162978 0.680856 -0.714054
vn 0.109768 0.869864 -0.480924
vn 0.162978 0.680856 -0.714054
vn 0.307563 0.869864 -0.385671
vn 0.456654 0.680856 -0.572627
vn 0.444441 0.869864 -0.214032
vn 0.659885 0.680856 -0.317784
vn 0.493292 0.869864 -0.000000
vn 0.732417 0.680856 -0.000000
vn 0.444441 0.869864 0.214031
vn 0.659885 0.680856 0.317784
vn 0.307563 0.869864 0.385671
vn 0.456655 0.680856 0.572627
vn 0.109768 0.869864 0.480924
vn 0.162978 0.680856 0.714054
vn -0.109768 0.869864 0.480924
vn -0.162978 0.680856 0.714054
vn -0.307563 0.869864 0.385671
vn -0.456654 0.680856 0.572627
vn -0.444441 0.869864 0.214031
vn -0.659885 0.680856 0.317784
vn -0.493292 0.869864 0.000000
vn -0.732417 0.680856 0.000000
vn -0.549415 0.472755 -0.688945
vn -0.793928 0.472755 -0.382336
vn -0.196084 0.472755 -0.859100
vn 0.196084 0.472755 -0.859100
vn 0.549415 0.472755 -0.688945
vn 0.793928 0.472755 -0.382336
vn 0.881194 0.472755 -0.000000
vn 0.793928 0.472755 0.382336
vn 0.549415 0.472755 0.688945
vn 0.196084 0.472755 0.859100
vn -0.196084 0.472755 0.859100
vn -0.549415 0.472755 0.688945
vn -0.793928 0.472755 0.382336
vn -0.881194 0.472755 0.000000
vn -0.587586 0.334448 -0.736809
vn -0.849086 0.334448 -0.408898
vn -0.209707 0.334448 -0.918786
vn 0.209707 0.334448 -0.918786
vn 0.587585 0.334448 -0.736809
vn 0.849086 0.334448 -0.408898
vn 0.942414 0.334448 -0.000000
vn 0.849086 0.334448 0.408898
vn 0.587586 0.334448 0.736809
vn 0.209707 0.334448 0.918786
vn -0.209707 0.334448 0.918786
vn -0.587586 0.334448 0.736809
vn -0.849086 0.334448 0.408898
vn -0.942414 0.334448 0.000000
vn -0.607373 0.225902 -0.761621
vn -0.877679 0.225902 -0.422668
vn -0.216769 0.225902 -0.949726
vn 0.216769 0.225902 -0.949726
vn 0.607373 0.225901 -0.761621
vn 0.877679 0.225901 -0.422668
vn 0.974150 0.225901 -0.000000
vn 0.877679 0.225901 0.422668
vn 0.607373 0.225901 0.761621
vn 0.216769 0.225902 0.949726
vn -0.216769 0.225901 0.949726
vn -0.607373 0.225901 0.761621
vn -0.877679 0.225901 0.422668
vn -0.974150 0.225901 0.000000
vn -0.618052 0.131781 -0.775013
vn -0.893111 0.131781 -0.430100
vn -0.220581 0.131781 -0.966425
vn 0.220580 0.131781 -0.966425
vn 0.618052 0.131781 -0.775013
vn 0.893111 0.131781 -0.430100
vn 0.991279 0.131781 -0.000000
vn 0.893112 0.131781 0.430100
vn 0.618052 0.131781 0.775013
vn 0.220580 0.131781 0.966425
vn -0.220580 0.131781 0.966425
vn -0.618052 0.131781 0.775013
vn -0.893111 0.131781 0.430100
vn -0.991279 0.131781 0.000000
vn -0.623360 0.020395 -0.781669
vn -0.900781 0.020395 -0.433793
vn -0.222475 0.020395 -0.974725
vn 0.222475 0.020395 -0.974725
vn 0.623360 0.020395 -0.781669
vn 0.900781 0.020395 -0.433794
vn 0.999792 0.020395 -0.000000
vn 0.900782 0.020395 0.433793
vn 0.623360 0.020395 0.781669
vn 0.222475 0.020395 0.974725
vn -0.222475 0.020395 0.974725
vn -0.623360 0.020395 0.781669
vn -0.900781 0.020395 0.433793
vn -0.999792 0.020395 0.000000
vn -0.616699 -0.147194 -0.773315
vn -0.891155 -0.147194 -0.429158
vn -0.220097 -0.147194 -0.964309
vn 0.220097 -0.147194 -0.964309
vn 0.616698 -0.147194 -0.773316
vn 0.891155 -0.147194 -0.429158
vn 0.989108 -0.147194 -0.000000
vn 0.891155 -0.147194 0.429157
vn 0.616699 -0.147194 0.773315
vn 0.220097 -0.147194 0.964309
vn -0.220097 -0.147194 0.964309
vn -0.616698 -0.147194 0.773316
vn -0.891155 -0.147194 0.429158
vn -0.989108 -0.147194 0.000000
vn -0.573974 -0.390547 -0.719741
vn -0.829417 -0.390547 -0.399426
vn -0.204849 -0.390547 -0.897502
vn 0.204849 -0.390547 -0.897502
vn 0.573974 -0.390547 -0.719741
vn 0.829417 -0.390547 -0.399426
vn 0.920583 -0.390547 -0.000000
vn 0.829417 -0.390547 0.399426
vn 0.573974 -0.390547 0.719741
vn 0.204849 -0.390546 0.897502
vn -0.204849 -0.390547 0.897502
vn -0.573974 -0.390547 0.719741
vn -0.829417 -0.390547 0.399426
vn -0.920583 -0.390547 0.000000
vn -0.468820 -0.659245 -0.587881
vn -0.677464 -0.659245 -0.326249
vn -0.167320 -0.659245 -0.733076
vn 0.167320 -0.659245 -0.733076
vn 0.468820 -0.659245 -0.587881
vn 0.677464 -0.659245 -0.326250
vn 0.751928 -0.659245 -0.000000
vn 0.677464 -0.659245 0.326249
vn 0.468820 -0.659245 0.587881
vn 0.167320 -0.659245 0.733076
vn -0.167320 -0.659245 0.733076
vn -0.468820 -0.659245 0.587881
vn -0.677464 -0.659245 0.326250
vn -0.751928 -0.659245 0.000000
vn -0.321752 -0.856558 -0.403464
vn -0.464945 -0.856558 -0.223906
vn -0.114832 -0.856559 -0.503111
vn 0.114832 -0.856559 -0.503111
vn 0.321752 -0.856558 -0.403464
vn 0.464945 -0.856558 -0.223906
vn 0.516050 -0.856558 -0.000000
vn 0.464945 -0.856558 0.223906
vn 0.321752 -0.856558 0.403464
vn 0.114832 -0.856558 0.503111
vn -0.114832 -0.856558 0.503112
vn -0.321752 -0.856558 0.403464
vn -0.464945 -0.856558 0.223906
vn -0.516050 -0.856558 0.000000
vn -0.184609 -0.955160 -0.231493
vn -0.266768 -0.955160 -0.128469
vn -0.065886 -0.955160 -0.288667
vn 0.065886 -0.955160 -0.288666
vn 0.184609 -0.955160 -0.231493
vn 0.266768 -0.955160 -0.128469
vn 0.296090 -0.955160 -0.000000
vn 0.266768 -0.955160 0.128469
vn 0.184609 -0.955160 0.231493
vn 0.065886 -0.955160 0.288667
vn -0.065886 -0.955160 0.288666
vn -0.184609 -0.955160 0.231493
vn -0.266768 -0.955160 0.128469
vn -0.296090 -0.955160 0.000000
vn 0.000000 1.000000 0.000000
vn 0.000000 -1.000000 -0.000000
s 1
g potato1
f 15/1/1 1/2/2 2/3/3 16/4/4
f 3/5/5 17/6/6 16/4/4 2/3/3
f 4/7/7 18/8/8 17/6/6 3/5/5
f 5/9/9 19/10/10 18/8/8 4/7/7
f 6/11/11 20/12/12 19/10/10 5/9/9
f 7/13/13 21/14/14 20/12/12 6/11/11
f 8/15/15 22/16/16 21/14/14 7/13/13
f 9/17/17 23/18/18 22/16/16 8/15/15
f 10/19/19 24/20/20 23/18/18 9/17/17
f 11/21/21 25/22/22 24/20/20 10/19/19
f 12/23/23 26/24/24 25/22/22 11/21/21
f 26/24/24 12/23/23 13/25/25 27/26/26
f 14/27/27 28/28/28 27/26/26 13/25/25
f 15/1/1 28/28/28 14/27/27 1/2/2
f 15/1/1 16/4/4 30/29/29 29/30/30
f 16/4/4 17/6/6 31/31/31 30/29/29
f 17/6/6 18/8/8 32/32/32 31/31/31
f 18/8/8 19/10/10 33/33/33 32/32/32
f 19/10/10 20/12/12 34/34/34 33/33/33
f 20/12/12 21/14/14 35/35/35 34/34/34
f 21/14/14 22/16/16 36/36/36 35/35/35
f 22/16/16 23/18/18 37/37/37 36/36/36
f 23/18/18 24/20/20 38/38/38 37/37/37
f 24/20/20 25/22/22 39/39/39 38/38/38
f 25/22/22 26/24/24 40/40/40 39/39/39
f 26/24/24 27/26/26 41/41/41 40/40/40
f 27/26/26 28/28/28 42/42/42 41/41/41
f 28/28/28 15/1/1 29/30/30 42/42/42
f 29/30/30 30/29/29 44/43/43 43/44/44
f 30/29/29 31/31/31 45/45/45 44/43/43
f 31/31/31 32/32/32 46/46/46 45/45/45
f 32/32/32 33/33/33 47/47/47 46/46/46
f 33/33/33 34/34/34 48/48/48 47/47/47
f 34/34/34 35/35/35 49/49/49 48/48/48
f 35/35/35 36/36/36 50/50/50 49/49/49
f 36/36/36 37/37/37 51/51/51 50/50/50
f 37/37/37 38/38/38 52/52/52 51/51/51
f 38/38/38 39/39/39 53/53/53 52/52/52
f 39/39/39 40/40/40 54/54/54 53/53/53
f 40/40/40 41/41/41 55/55/55 54/54/54
f 41/41/41 42/42/42 56/56/56 55/55/55
f 42/42/42 29/30/30 43/44/44 56/56/56
f 43/44/44 44/43/43 58/57/57 57/58/58
f 44/43/43 45/45/45 59/59/59 58/57/57
f 45/45/45 46/46/46 60/60/60 59/59/59
f 46/46/46 47/47/47 61/61/61 60/60/60
f 47/47/47 48/48/48 62/62/62 61/61/61
f 48/48/48 49/49/49 63/63/63 62/62/62
f 49/49/49 50/50/50 64/64/64 63/63/63
f 50/50/50 51/51/51 65/65/65 64/64/64
f 51/51/51 52/52/52 66/66/66 65/65/65
f 52/52/52 53/53/53 67/67/67 66/66/66
f 53/53/53 54/54/54 68/68/68 67/67/67
f 54/54/54 55/55/55 69/69/69 68/68/68
f 55/55/55 56/56/56 70/70/70 69/69/69
f 56/56/56 43/44/44 57/58/58 70/70/70
f 57/58/58 58/57/57 72/71/71 71/72/72
f 58/57/57 59/59/59 73/73/73 72/71/71
f 59/59/59 60/60/60 74/74/74 73/73/73
f 60/60/60 61/61/61 75/75/75 74/74/74
f 61/61/61 62/62/62 76/76/76 75/75/75
f 62/62/62 63/63/63 77/77/77 76/76/76
f 63/63/63 64/64/64 78/78/78 77/77/77
f 64/64/64 65/65/65 79/79/79 78/78/78
f 65/65/65 66/66/66 80/80/80 79/79/79
f 66/66/66 67/67/67 81/81/81 80/80/80
f 67/67/67 68/68/68 82/82/82 81/81/81
f 68/68/68 69/69/69 83/83/83 82/82/82
f 69/69/69 70/70/70 84/84/84 83/83/83
f 70/70/70 57/58/58 71/72/72 84/84/84
f 71/72/72 72/71/71 86/85/85 85/86/86
f 72/71/71 73/73/73 87/87/87 86/85/85
f 73/73/73 74/74/74 88/88/88 87/87/87
f 74/74/74 75/75/75 89/89/89 88/88/88
f 75/75/75 76/76/76 90/90/90 89/89/89
f 76/76/76 77/77/77 91/91/91 90/90/90
f 77/77/77 78/78/78 92/92/92 91/91/91
f 78/78/78 79/79/79 93/93/93 92/92/92
f 79/79/79 80/80/80 94/94/94 93/93/93
f 80/80/80 81/81/81 95/95/95 94/94/94
f 81/81/81 82/82/82 96/96/96 95/95/95
f 82/82/82 83/83/83 97/97/97 96/96/96
f 83/83/83 84/84/84 98/98/98 97/97/97
f 84/84/84 71/72/72 85/86/86 98/98/98
f 85/86/86 86/85/85 100/99/99 99/100/100
f 86/85/85 87/87/87 101/101/101 100/99/99
f 87/87/87 88/88/88 102/102/102 101/101/101
f 88/88/88 89/89/89 103/103/103 102/102/102
f 89/89/89 90/90/90 104/104/104 103/103/103
f 90/90/90 91/91/91 105/105/105 104/104/104
f 91/91/91 92/92/92 106/106/106 105/105/105
f 92/92/92 93/93/93 107/107/107 106/106/106
f 93/93/93 94/94/94 108/108/108 107/107/107
f 94/94/94 95/95/95 109/109/109 108/108/108
f 95/95/95 96/96/96 110/110/110 109/109/109
f 96/96/96 97/97/97 111/111/111 110/110/110
f 97/97/97 98/98/98 112/112/112 111/111/111
f 98/98/98 85/86/86 99/100/100 112/112/112
f 99/100/100 100/99/99 114/113/113 113/114/114
f 100/99/99 101/101/101 115/115/115 114/113/113
f 101/101/101 102/102/102 116/116/116 115/115/115
f 102/102/102 103/103/103 117/117/117 116/116/116
f 103/103/103 104/104/104 118/118/118 117/117/117
f 104/104/104 105/105/105 119/119/119 118/118/118
f 105/105/105 106/106/106 120/120/120 119/119/119
f 106/106/106 107/107/107 121/121/121 120/120/120
f 107/107/107 108/108/108 122/122/122 121/121/121
f 108/108/108 109/109/109 123/123/123 122/122/122
f 109/109/109 110/110/110 124/124/124 123/123/123
f 110/110/110 111/111/111 125/125/125 124/124/124
f 111/111/111 112/112/112 126/126/126 125/125/125
f 112/112/112 99/100/100 113/114/114 126/126/126
f 113/127/114 114/128/113 128/129/127 127/130/128
f 114/128/113 115/131/115 129/132/129 128/129/127
f 115/131/115 116/133/116 130/134/130 129/132/129
f 116/133/116 117/135/117 131/136/131 130/134/130
f 117/135/117 118/137/118 132/138/132 131/136/131
f 118/137/118 119/139/119 133/140/133 132/138/132
f 119/139/119 120/141/120 134/142/134 133/140/133
f 120/141/120 121/143/121 135/144/135 134/142/134
f 121/143/121 122/145/122 136/146/136 135/144/135
f 122/145/122 123/147/123 137/148/137 136/146/136
f 123/147/123 124/149/124 138/150/138 137/148/137
f 124/149/124 125/151/125 139/152/139 138/150/138
f 125/151/125 126/153/126 140/154/140 139/152/139
f 126/153/126 113/127/114 127/130/128 140/154/140
f 128/129/127 142/155/141 141/156/142 127/130/128
f 128/129/127 129/132/129 143/157/143 142/155/141
f 129/132/129 130/134/130 144/158/144 143/157/143
f 130/134/130 131/136/131 145/159/145 144/158/144
f 131/136/131 132/138/132 146/160/146 145/159/145
f 132/138/132 133/140/133 147/161/147 146/160/146
f 133/140/133 134/142/134 148/162/148 147/161/147
f 134/142/134 135/144/135 149/163/149 148/162/148
f 135/144/135 136/146/136 150/164/150 149/163/149
f 136/146/136 137/148/137 151/165/151 150/164/150
f 137/148/137 138/150/138 152/166/152 151/165/151
f 138/150/138 139/152/139 153/167/153 152/166/152
f 139/152/139 140/154/140 154/168/154 153/167/153
f 140/154/140 127/130/128 141/156/142 154/168/154
f 141/156/142 142/155/141 156/170/155 155/171/156
f 142/155/141 143/157/143 157/172/157 156/170/155
f 143/157/143 144/158/144 158/173/158 157/172/157
f 144/158/144 145/159/145 159/174/159 158/173/158
f 145/159/145 146/160/146 160/175/160 159/174/159
f 146/160/146 147/161/147 161/176/161 160/175/160
f 147/161/147 148/162/148 162/177/162 161/176/161
f 148/162/148 149/163/149 163/178/163 162/177/162
f 149/163/149 150/164/150 164/179/164 163/178/163
f 150/164/150 151/165/151 165/180/165 164/179/164
f 151/165/151 152/166/152 166/181/166 165/180/165
f 152/166/152 153/167/153 167/182/167 166/181/166
f 153/167/153 154/168/154 168/183/168 167/182/167
f 154/168/154 141/156/142 155/171/156 168/183/168
f 2/3/3 1/2/2 169/169/169
f 3/5/5 2/3/3 169/169/169
f 4/7/7 3/5/5 169/169/169
f 5/9/9 4/7/7 169/169/169
f 6/11/11 5/9/9 169/169/169
f 7/13/13 6/11/11 169/169/169
f 8/15/15 7/13/13 169/169/169
f 9/17/17 8/15/15 169/169/169
f 10/19/19 9/17/17 169/169/169
f 11/21/21 10/19/19 169/169/169
f 12/23/23 11/21/21 169/169/169
f 13/25/25 12/23/23 169/169/169
f 14/27/27 13/25/25 169/169/169
f 1/2/2 14/27/27 169/169/169
f 155/171/156 156/170/155 170/184/170
f 156/170/155 157/172/157 170/184/170
f 157/172/157 158/173/158 170/184/170
f 158/173/158 159/174/159 170/184/170
f 159/174/159 160/175/160 170/184/170
f 160/175/160 161/176/161 170/184/170
f 161/176/161 162/177/162 170/184/170
f 162/177/162 163/178/163 170/184/170
f 163/178/163 164/179/164 170/184/170
f 164/179/164 165/180/165 170/184/170
f 165/180/165 166/181/166 170/184/170
f 166/181/166 167/182/167 170/184/170
f 167/182/167 168/183/168 170/184/170
f 168/183/168 155/171/156 170/184/170
