# This file uses centimeters as units for non-parametric coordinates.

g default
v -0.083283 0.454045 0.051662
v 0.271637 0.448950 0.006786
v -0.083283 0.685846 0.051662
v 0.271637 0.737364 0.006786
v -0.083283 0.685846 -0.051662
v 0.271637 0.737364 -0.006786
v -0.083283 0.454045 -0.051662
v 0.271637 0.448950 -0.006786
v 0.253539 0.583846 -0.006786
v -0.065185 0.562462 -0.051662
v -0.065185 0.562462 0.051662
v 0.253539 0.583846 0.006786
v 0.253970 0.449204 -0.009020
v 0.256325 0.449170 0.008722
v 0.255715 0.478645 0.008299
v 0.253876 0.478433 -0.008535
v 0.020044 0.745459 0.020496
v 0.034651 0.364580 0.020286
v 0.034651 0.364580 -0.020286
v 0.020044 0.745459 -0.020351
v 0.040109 0.000000 0.028935
v 0.040109 0.000000 -0.028935
v -0.029304 0.745459 0.020496
v -0.021589 0.364580 0.020286
v -0.029804 0.000000 0.028935
v -0.029804 0.000000 -0.028935
v -0.021589 0.364580 -0.020286
v -0.029304 0.745459 -0.020351
v 0.018188 0.745459 0.020496
v 0.032536 0.364580 0.020286
v 0.037479 0.000000 0.028935
v 0.037479 0.000000 -0.028935
v 0.032536 0.364580 -0.020286
v 0.018188 0.745459 -0.020351
vt 0.951508 0.174390
vt 0.961921 0.045513
vt 0.906336 0.271093
vt 0.964652 0.271093
vt 0.906336 0.329409
vt 0.964652 0.329409
vt 0.898183 0.432745
vt 0.940108 0.044625
vt 0.931032 0.044619
vt 0.909067 0.045513
vt 0.932022 0.069300
vt 0.938965 0.069300
vt 0.932480 0.174390
vt 0.932480 0.184518
vt 0.930593 0.438377
vt 0.938965 0.097433
vt 0.951508 0.184518
vt 0.930593 0.478812
vt 0.951508 0.165491
vt 0.898183 0.465243
vt 0.932022 0.097433
vt 0.931249 0.050021
vt 0.932022 0.044579
vt 0.972805 0.465243
vt 0.940395 0.478812
vt 0.938965 0.044579
vt 0.939860 0.049982
vt 0.940395 0.438377
vt 0.972805 0.432745
vt 0.941658 0.410613
vt 0.972805 0.404190
vt 0.898183 0.404190
vt 0.929500 0.410669
vt 0.932480 0.165491
vt 0.151169 0.682168
vt 0.151134 0.646527
vt 0.151403 0.646527
vt 0.151403 0.682168
vt 0.151169 0.682168
vt 0.151403 0.682168
vt 0.161596 0.584956
vt 0.161596 0.557160
vt 0.161596 0.557160
vt 0.161596 0.584956
vt 0.151403 0.646527
vt 0.151134 0.646527
vt 0.151169 0.610886
vt 0.151403 0.610886
vt 0.216537 0.664188
vt 0.216537 0.664188
vt 0.216614 0.664188
vt 0.216614 0.664188
vt 0.161596 0.529365
vt 0.161596 0.529365
vt 0.151169 0.610886
vt 0.151403 0.610886
vt 0.081311 0.855716
vt 0.081311 0.828047
vt 0.090302 0.828047
vt 0.090302 0.855716
vt 0.081311 0.855716
vt 0.090302 0.855716
vt 0.090302 0.828047
vt 0.081311 0.828047
vt 0.330064 0.805499
vt 0.330064 0.863991
vt 0.330064 0.863991
vt 0.330064 0.805499
vt 0.081311 0.855716
vt 0.081311 0.828047
vt 0.090302 0.828047
vt 0.090302 0.855716
vt 0.081311 0.855716
vt 0.090302 0.855716
vt 0.090302 0.828047
vt 0.081311 0.828047
vt 0.366988 0.878594
vt 0.366988 0.878594
vt 0.369062 0.878594
vt 0.369062 0.878594
vt 0.112821 0.596560
vt 0.112821 0.603747
vt 0.048691 0.603747
vt 0.048691 0.596560
vt 0.048691 0.610933
vt 0.112821 0.610933
vn 0.132562 -0.001309 0.991174
vn 0.132494 -0.001131 0.991183
vn 0.132066 0.000000 0.991241
vn 0.132066 0.000000 0.991241
vn -0.143647 0.989629 0.000000
vn -0.143647 0.989629 0.000000
vn -0.143647 0.989629 0.000000
vn -0.143647 0.989629 0.000000
vn 0.132066 0.000000 -0.991241
vn 0.132066 0.000000 -0.991241
vn 0.132496 -0.001135 -0.991183
vn 0.132569 -0.001329 -0.991173
vn -0.014354 -0.999897 0.000000
vn -0.014354 -0.999897 -0.000000
vn -0.014354 -0.999897 -0.000000
vn -0.014354 -0.999897 0.000000
vn 1.000000 0.000000 0.000000
vn 1.000000 0.000000 0.000000
vn 0.993123 -0.117079 0.000000
vn 0.993123 -0.117079 0.000000
vn -1.000000 0.000000 0.000000
vn -1.000000 0.000000 0.000000
vn -0.989413 -0.145129 0.000000
vn -0.989413 -0.145129 0.000000
vn 0.131964 0.000268 -0.991254
vn 0.133117 -0.002778 -0.991096
vn -0.986351 0.164654 0.000000
vn -0.986351 0.164654 0.000000
vn 0.133099 -0.002728 0.991099
vn 0.125660 0.016859 0.991930
vn 0.131969 0.000257 0.991254
vn 0.991120 0.132974 0.000000
vn 0.991120 0.132974 0.000000
vn 0.125661 0.016859 -0.991930
vn 0.125661 0.016859 -0.991930
vn -0.014352 -0.999897 -0.000002
vn -0.014350 -0.999897 0.000000
vn 0.125661 0.016859 0.991930
vn 0.000000 0.000000 1.000000
vn 0.000000 0.000000 1.000000
vn 0.000000 0.000000 1.000000
vn 0.000000 0.000000 1.000000
vn 0.000000 1.000000 -0.000000
vn 0.000000 1.000000 -0.000000
vn 0.000000 1.000000 -0.000000
vn 0.000000 1.000000 -0.000000
vn 1.000000 0.000000 -0.000000
vn 1.000000 0.000000 -0.000000
vn 1.000000 0.000000 -0.000000
vn 1.000000 0.000000 -0.000000
vn -0.000000 0.000000 -1.000000
vn -0.000000 0.000000 -1.000000
vn -0.000000 0.000000 -1.000000
vn -0.000000 0.000000 -1.000000
vn 0.000000 0.000000 1.000000
vn 0.000000 0.000000 1.000000
vn 0.000000 0.000000 1.000000
vn 0.000000 0.000000 1.000000
vn 0.000000 -1.000000 0.000000
vn 0.000000 -1.000000 0.000000
vn 0.000000 -1.000000 0.000000
vn 0.000000 -1.000000 0.000000
vn 1.000000 0.000000 -0.000000
vn 1.000000 0.000000 -0.000000
vn 1.000000 0.000000 -0.000000
vn 1.000000 0.000000 -0.000000
vn -0.000000 -0.000000 -1.000000
vn -0.000000 -0.000000 -1.000000
vn -0.000000 0.000000 -1.000000
vn -0.000000 0.000000 -1.000000
vn 0.000000 0.000000 1.000000
vn 0.000000 0.000000 1.000000
vn 0.000000 0.000000 1.000000
vn 0.000000 0.000000 1.000000
vn 0.000000 -1.000000 0.000000
vn 0.000000 -1.000000 0.000000
vn -0.000000 -0.000000 -1.000000
vn -0.000000 -0.000000 -1.000000
vn -0.000000 0.000000 -1.000000
vn -0.000000 0.000000 -1.000000
vn 0.000000 1.000000 -0.000000
vn 0.000000 1.000000 -0.000000
vn -0.999795 -0.020253 0.000001
vn -0.999795 -0.020253 0.000001
vn -0.999795 -0.020253 0.000001
vn -0.999795 -0.020253 0.000001
vn -0.999746 0.022529 0.000001
vn -0.999746 0.022529 0.000001
vn -0.999746 0.022529 0.000001
vn -0.999746 0.022529 0.000001
s 1
g WoodenFence:WoodenFence:WoodenFence:WoodenFence:pCube12
f 11/7/1 12/15/2 4/18/3 3/20/4
s off
f 3/3/5 4/4/6 6/6/7 5/5/8
s 2
f 5/24/9 6/25/10 9/28/11 10/29/12
s 3
f 7/2/13 13/8/14 14/9/15 1/10/16
s 4
f 12/11/17 9/12/18 6/16/19 4/21/20
s 5
f 10/1/21 11/13/22 3/14/23 5/17/24
s 2
f 10/29/12 9/28/11 16/30/25 7/31/26
s 5
f 7/19/27 1/34/28 11/13/22 10/1/21
s 1
f 1/10/29 14/9/30 15/22/31
s 4
f 2/23/32 8/26/33 9/12/18 12/11/17
s 2
f 13/8/34 16/27/25 9/12/11 8/26/35
s 3
f 2/23/36 13/8/14 8/26/37
f 14/9/15 13/8/14 2/23/36
s 1
f 12/11/2 15/22/31 14/9/30 2/23/38
f 1/32/29 15/33/31 12/15/2 11/7/1
s 2
f 7/2/26 16/27/25 13/8/34
s 7
f 29/35/39 30/36/40 18/37/41 17/38/42
s 8
f 34/39/43 29/35/44 17/38/45 20/40/46
s off
f 17/41/47 18/42/48 19/43/49 20/44/50
s 9
f 34/39/51 20/40/52 19/45/53 33/46/54
s 10
f 31/47/55 21/48/56 18/37/57 30/36/58
s 11
f 31/49/59 32/50/60 22/51/61 21/52/62
s off
f 21/53/63 22/54/64 19/43/65 18/42/66
s 12
f 32/55/67 33/46/68 19/45/69 22/56/70
s 7
f 23/57/71 24/58/72 30/59/40 29/60/39
s 10
f 25/61/73 31/62/55 30/63/58 24/64/74
s 11
f 25/65/75 26/66/76 32/67/60 31/68/59
s 12
f 26/69/77 27/70/78 33/71/68 32/72/67
s 9
f 28/73/79 34/74/51 33/75/54 27/76/80
s 8
f 28/77/81 23/78/82 29/79/44 34/80/43
s off
f 28/81/83 27/82/84 24/83/85 23/84/86
f 25/85/87 24/83/88 27/82/89 26/86/90
