# This file uses centimeters as units for non-parametric coordinates.

g default
v 0.202260 0.000000 -0.065718
v 0.172052 0.000000 -0.125003
v 0.125003 0.000000 -0.172052
v 0.065718 0.000000 -0.202260
v 0.000000 0.000000 -0.212668
v -0.065718 0.000000 -0.202260
v -0.125003 0.000000 -0.172052
v -0.172052 0.000000 -0.125003
v -0.202260 0.000000 -0.065718
v -0.212668 0.000000 0.000000
v -0.202260 0.000000 0.065718
v -0.172052 0.000000 0.125003
v -0.125003 0.000000 0.172052
v -0.065718 0.000000 0.202260
v -0.000000 0.000000 0.212668
v 0.065718 0.000000 0.202260
v 0.125003 0.000000 0.172052
v 0.172052 0.000000 0.125003
v 0.202260 0.000000 0.065718
v 0.212668 0.000000 0.000000
v 0.215002 0.054423 -0.069858
v 0.182891 0.054423 -0.132878
v 0.132878 0.054423 -0.182891
v 0.069858 0.054423 -0.215002
v -0.000000 0.054423 -0.226066
v -0.069858 0.054423 -0.215002
v -0.132878 0.054423 -0.182891
v -0.182891 0.054423 -0.132878
v -0.215002 0.054423 -0.069858
v -0.226066 0.054423 0.000000
v -0.215002 0.054423 0.069858
v -0.182891 0.054423 0.132878
v -0.132878 0.054423 0.182891
v -0.069858 0.054423 0.215002
v -0.000000 0.054423 0.226066
v 0.069858 0.054423 0.215002
v 0.132878 0.054423 0.182891
v 0.182891 0.054423 0.132878
v 0.215002 0.054423 0.069858
v 0.226066 0.054423 0.000000
v 0.000000 0.000000 0.000000
v -0.000000 0.054423 0.000000
v 0.172052 0.017640 -0.125003
v 0.202260 0.017640 -0.065718
v 0.212668 0.017640 0.000000
v 0.202260 0.017640 0.065718
v 0.172052 0.017640 0.125003
v 0.125003 0.017640 0.172052
v 0.065718 0.017640 0.202260
v -0.000000 0.017640 0.212668
v -0.065718 0.017640 0.202260
v -0.125003 0.017640 0.172052
v -0.172052 0.017640 0.125003
v -0.202260 0.017640 0.065718
v -0.212668 0.017640 0.000000
v -0.202260 0.017640 -0.065718
v -0.172052 0.017640 -0.125003
v -0.125003 0.017640 -0.172052
v -0.065718 0.017640 -0.202260
v 0.000000 0.017640 -0.212668
v 0.065718 0.017640 -0.202260
v 0.125003 0.017640 -0.172052
v 0.226411 0.043568 -0.164497
v 0.266163 0.043568 -0.086481
v 0.226411 0.073917 -0.164497
v 0.266163 0.073917 -0.086481
v 0.279860 0.043568 0.000000
v 0.279860 0.073917 0.000000
v 0.266162 0.043568 0.086481
v 0.266162 0.073917 0.086481
v 0.226411 0.043568 0.164497
v 0.226411 0.073917 0.164497
v 0.164497 0.043568 0.226411
v 0.164497 0.073917 0.226411
v 0.086481 0.043568 0.266162
v 0.086481 0.073917 0.266162
v -0.000000 0.043568 0.279860
v -0.000000 0.073917 0.279860
v -0.086481 0.043568 0.266163
v -0.086481 0.073917 0.266163
v -0.164497 0.043568 0.226411
v -0.164497 0.073917 0.226411
v -0.226411 0.043568 0.164497
v -0.226411 0.073917 0.164497
v -0.266163 0.043568 0.086481
v -0.266163 0.073917 0.086481
v -0.279860 0.043568 0.000000
v -0.279860 0.073917 0.000000
v -0.266163 0.043568 -0.086481
v -0.266163 0.073917 -0.086481
v -0.226411 0.043568 -0.164497
v -0.226411 0.073917 -0.164497
v -0.164497 0.043568 -0.226411
v -0.164497 0.073917 -0.226411
v -0.086481 0.043568 -0.266163
v -0.086481 0.073917 -0.266163
v -0.000000 0.043568 -0.279860
v -0.000000 0.073917 -0.279860
v 0.086481 0.043568 -0.266163
v 0.086481 0.073917 -0.266163
v 0.164497 0.043568 -0.226411
v 0.164498 0.073917 -0.226411
v 0.468718 0.105948 -0.340543
v 0.551011 0.105948 -0.179034
v 0.468718 0.136297 -0.340543
v 0.551011 0.136297 -0.179034
v 0.579367 0.105948 0.000000
v 0.579367 0.136297 0.000000
v 0.551011 0.105948 0.179034
v 0.551011 0.136297 0.179034
v 0.468718 0.105948 0.340543
v 0.468718 0.136297 0.340543
v 0.340543 0.105948 0.468718
v 0.340543 0.136297 0.468718
v 0.179034 0.105948 0.551011
v 0.179034 0.136297 0.551011
v 0.000000 0.105948 0.579367
v 0.000000 0.136297 0.579367
v -0.179034 0.105948 0.551011
v -0.179034 0.136297 0.551011
v -0.340543 0.105948 0.468718
v -0.340543 0.136297 0.468718
v -0.468718 0.105948 0.340543
v -0.468718 0.136297 0.340543
v -0.551011 0.105948 0.179034
v -0.551011 0.136297 0.179034
v -0.579367 0.105947 0.000000
v -0.579367 0.136296 0.000000
v -0.551011 0.105947 -0.179034
v -0.551011 0.136296 -0.179034
v -0.468718 0.105948 -0.340543
v -0.468718 0.136297 -0.340543
v -0.340543 0.105948 -0.468718
v -0.340543 0.136297 -0.468718
v -0.179034 0.105948 -0.551011
v -0.179034 0.136297 -0.551011
v -0.000000 0.105948 -0.579367
v -0.000000 0.136297 -0.579367
v 0.179034 0.105948 -0.551011
v 0.179034 0.136297 -0.551011
v 0.340543 0.105948 -0.468718
v 0.340543 0.136297 -0.468718
vt 0.379869 0.340303
vt 0.377549 0.335749
vt 0.373934 0.332135
vt 0.369380 0.329815
vt 0.364332 0.329015
vt 0.359284 0.329815
vt 0.354730 0.332135
vt 0.351116 0.335749
vt 0.348796 0.340303
vt 0.347996 0.345351
vt 0.348796 0.350399
vt 0.351116 0.354953
vt 0.354730 0.358568
vt 0.359284 0.360888
vt 0.364332 0.361687
vt 0.369380 0.360888
vt 0.373934 0.358568
vt 0.377549 0.354953
vt 0.379869 0.350399
vt 0.380668 0.345351
vt 0.089694 0.134626
vt 0.091560 0.131137
vt 0.091465 0.132014
vt 0.089588 0.135510
vt 0.094547 0.128397
vt 0.094471 0.129269
vt 0.098357 0.126761
vt 0.098308 0.127629
vt 0.102557 0.126453
vt 0.102538 0.127320
vt 0.106646 0.127517
vt 0.106656 0.128386
vt 0.110142 0.129804
vt 0.110176 0.130678
vt 0.112669 0.133009
vt 0.112720 0.133889
vt 0.114002 0.136737
vt 0.114061 0.137624
vt 0.114077 0.140574
vt 0.114135 0.141466
vt 0.112966 0.144144
vt 0.113016 0.145040
vt 0.110843 0.147142
vt 0.110878 0.148040
vt 0.107940 0.149341
vt 0.107957 0.150242
vt 0.104526 0.150596
vt 0.104522 0.151497
vt 0.100882 0.150827
vt 0.100855 0.151728
vt 0.097297 0.150022
vt 0.097247 0.150922
vt 0.094056 0.148228
vt 0.093986 0.149128
vt 0.091442 0.145562
vt 0.091353 0.146460
vt 0.089712 0.142213
vt 0.089611 0.143108
vt 0.089084 0.138452
vt 0.088976 0.139342
vt 0.065636 0.130872
vt 0.069948 0.119739
vt 0.328275 0.399985
vt 0.330152 0.398913
vt 0.335091 0.403196
vt 0.332711 0.398277
vt 0.335608 0.398198
vt 0.338407 0.398694
vt 0.340706 0.399666
vt 0.342241 0.400943
vt 0.342916 0.402333
vt 0.342774 0.403673
vt 0.341940 0.404845
vt 0.340570 0.405776
vt 0.338817 0.406426
vt 0.336823 0.406776
vt 0.334717 0.406817
vt 0.332621 0.406549
vt 0.330664 0.405978
vt 0.328987 0.405119
vt 0.327749 0.404005
vt 0.327119 0.402701
vt 0.364332 0.344698
vt 0.327260 0.401310
vt 0.352570 0.384145
vt 0.377401 0.384145
vt 0.351263 0.384145
vt 0.376094 0.384145
vt 0.374787 0.384145
vt 0.373480 0.384145
vt 0.372174 0.384145
vt 0.370867 0.384145
vt 0.369560 0.384145
vt 0.368253 0.384145
vt 0.366946 0.384145
vt 0.365639 0.384145
vt 0.364332 0.384145
vt 0.363025 0.384145
vt 0.361719 0.384145
vt 0.360412 0.384145
vt 0.359105 0.384145
vt 0.357798 0.384145
vt 0.356491 0.384145
vt 0.355184 0.384145
vt 0.353877 0.384145
vt 0.351263 0.384145
vt 0.352570 0.384145
vt 0.352570 0.400992
vt 0.351263 0.400992
vt 0.376094 0.384145
vt 0.377401 0.384145
vt 0.377401 0.400992
vt 0.376094 0.400992
vt 0.374787 0.384145
vt 0.374787 0.400992
vt 0.373480 0.384145
vt 0.373480 0.400992
vt 0.372174 0.384145
vt 0.372174 0.400992
vt 0.370867 0.384145
vt 0.370867 0.400992
vt 0.369560 0.384145
vt 0.369560 0.400992
vt 0.368253 0.384145
vt 0.368253 0.400992
vt 0.366946 0.384145
vt 0.366946 0.400992
vt 0.365639 0.384145
vt 0.365639 0.400992
vt 0.364332 0.384145
vt 0.364332 0.400992
vt 0.363025 0.384145
vt 0.363025 0.400992
vt 0.361719 0.384145
vt 0.361719 0.400992
vt 0.360412 0.384145
vt 0.360412 0.400992
vt 0.359105 0.384145
vt 0.359105 0.400992
vt 0.357798 0.384145
vt 0.357798 0.400992
vt 0.356491 0.384145
vt 0.356491 0.400992
vt 0.355184 0.384145
vt 0.355184 0.400992
vt 0.353877 0.384145
vt 0.353877 0.400992
vt 0.351263 0.384145
vt 0.352570 0.384145
vt 0.352570 0.400992
vt 0.351263 0.400992
vt 0.376094 0.384145
vt 0.377401 0.384145
vt 0.377401 0.400992
vt 0.376094 0.400992
vt 0.374787 0.384145
vt 0.374787 0.400992
vt 0.373480 0.384145
vt 0.373480 0.400992
vt 0.372174 0.384145
vt 0.372174 0.400992
vt 0.370867 0.384145
vt 0.370867 0.400992
vt 0.369560 0.384145
vt 0.369560 0.400992
vt 0.368253 0.384145
vt 0.368253 0.400992
vt 0.366946 0.384145
vt 0.366946 0.400992
vt 0.365639 0.384145
vt 0.365639 0.400992
vt 0.364332 0.384145
vt 0.364332 0.400992
vt 0.363025 0.384145
vt 0.363025 0.400992
vt 0.361719 0.384145
vt 0.361719 0.400992
vt 0.360412 0.384145
vt 0.360412 0.400992
vt 0.359105 0.384145
vt 0.359105 0.400992
vt 0.357798 0.384145
vt 0.357798 0.400992
vt 0.356491 0.384145
vt 0.356491 0.400992
vt 0.355184 0.384145
vt 0.355184 0.400992
vt 0.353877 0.384145
vt 0.353877 0.400992
vt 0.069458 0.121323
vt 0.065120 0.132506
vt 0.065413 0.142093
vt 0.064927 0.143759
vt 0.068595 0.152234
vt 0.068175 0.153913
vt 0.074334 0.160606
vt 0.074000 0.162284
vt 0.081836 0.166871
vt 0.081594 0.168542
vt 0.090432 0.170901
vt 0.090283 0.172564
vt 0.099575 0.172665
vt 0.099518 0.174324
vt 0.108791 0.172161
vt 0.108826 0.173821
vt 0.117624 0.169389
vt 0.117750 0.171055
vt 0.125578 0.164358
vt 0.125792 0.166032
vt 0.132055 0.157132
vt 0.132353 0.158811
vt 0.136340 0.147914
vt 0.136706 0.149589
vt 0.137618 0.137181
vt 0.138025 0.138835
vt 0.135120 0.125825
vt 0.135522 0.127439
vt 0.128408 0.115234
vt 0.128737 0.116792
vt 0.117758 0.107155
vt 0.117944 0.108660
vt 0.104445 0.103237
vt 0.104433 0.104712
vt 0.090589 0.104382
vt 0.090369 0.105867
vt 0.078511 0.110320
vt 0.078121 0.111847
vt 0.090575 0.133324
vt 0.088567 0.137072
vt 0.085191 0.136794
vt 0.087636 0.132048
vt 0.087931 0.141168
vt 0.084499 0.141919
vt 0.088640 0.145178
vt 0.085481 0.146877
vt 0.090534 0.148736
vt 0.087907 0.151227
vt 0.093375 0.151560
vt 0.091459 0.154646
vt 0.096881 0.153455
vt 0.095789 0.156926
vt 0.100752 0.154305
vt 0.100539 0.157944
vt 0.104684 0.154061
vt 0.105358 0.157652
vt 0.108372 0.152737
vt 0.109894 0.156063
vt 0.111515 0.150410
vt 0.113797 0.153257
vt 0.113828 0.147230
vt 0.116717 0.149392
vt 0.115053 0.143431
vt 0.118327 0.144725
vt 0.114996 0.139333
vt 0.118359 0.139632
vt 0.113568 0.135336
vt 0.116660 0.134603
vt 0.110830 0.131888
vt 0.113269 0.130215
vt 0.107023 0.129421
vt 0.108471 0.127047
vt 0.102560 0.128271
vt 0.102796 0.125563
vt 0.097972 0.128604
vt 0.096955 0.125994
vt 0.093818 0.130371
vt 0.091692 0.128271
vn 0.951057 0.000000 -0.309016
vn 0.809017 0.000000 -0.587786
vn 0.809017 0.000000 -0.587786
vn 0.951057 0.000000 -0.309016
vn 0.587785 -0.000000 -0.809017
vn 0.587785 -0.000000 -0.809017
vn 0.309017 -0.000000 -0.951057
vn 0.309017 -0.000000 -0.951057
vn -0.000000 -0.000000 -1.000000
vn -0.000000 -0.000000 -1.000000
vn -0.309017 0.000000 -0.951057
vn -0.309017 0.000000 -0.951057
vn -0.587786 0.000000 -0.809017
vn -0.587786 0.000000 -0.809017
vn -0.809017 0.000001 -0.587785
vn -0.809017 0.000001 -0.587785
vn -0.951057 0.000001 -0.309017
vn -0.951056 0.000001 -0.309017
vn -1.000000 0.000001 0.000000
vn -1.000000 0.000001 0.000000
vn -0.951057 0.000001 0.309017
vn -0.951056 0.000001 0.309017
vn -0.809017 0.000001 0.587785
vn -0.809017 0.000001 0.587785
vn -0.587785 0.000000 0.809017
vn -0.587785 0.000000 0.809017
vn -0.309017 0.000000 0.951056
vn -0.309017 0.000000 0.951056
vn 0.000000 0.000000 1.000000
vn 0.000000 0.000000 1.000000
vn 0.309017 0.000000 0.951056
vn 0.309017 0.000000 0.951056
vn 0.587785 0.000000 0.809017
vn 0.587785 0.000000 0.809017
vn 0.809017 0.000000 0.587785
vn 0.809017 0.000000 0.587785
vn 0.951057 0.000000 0.309017
vn 0.951057 0.000000 0.309017
vn 1.000000 0.000000 0.000001
vn 1.000000 0.000000 0.000001
vn 0.000000 -1.000000 -0.000000
vn 0.000000 -1.000000 -0.000000
vn 0.000000 -1.000000 -0.000000
vn 0.000000 -1.000000 0.000000
vn 0.000000 -1.000000 -0.000000
vn 0.000000 -1.000000 0.000000
vn 0.000000 -1.000000 0.000000
vn 0.000000 -1.000000 0.000000
vn 0.000000 -1.000000 0.000000
vn 0.000000 -1.000000 0.000000
vn 0.000000 -1.000000 0.000000
vn 0.000000 -1.000000 0.000000
vn 0.000000 -1.000000 -0.000000
vn 0.000000 -1.000000 -0.000000
vn 0.000000 -1.000000 -0.000000
vn 0.000000 -1.000000 0.000000
vn 0.000000 -1.000000 0.000000
vn 0.000000 -1.000000 -0.000000
vn 0.000000 -1.000000 -0.000000
vn 0.000000 -1.000000 0.000000
vn 0.000000 -1.000000 0.000000
vn -0.134074 0.990013 0.043563
vn -0.114050 0.990013 0.082862
vn 0.000000 1.000000 -0.000000
vn -0.082862 0.990013 0.114050
vn -0.043563 0.990013 0.134074
vn -0.000000 0.990013 0.140974
vn 0.043563 0.990013 0.134074
vn 0.082862 0.990013 0.114050
vn 0.114050 0.990013 0.082862
vn 0.134074 0.990013 0.043563
vn 0.140973 0.990013 0.000000
vn 0.134074 0.990013 -0.043563
vn 0.114050 0.990013 -0.082862
vn 0.082862 0.990013 -0.114050
vn 0.043563 0.990013 -0.134074
vn -0.000000 0.990013 -0.140974
vn -0.043563 0.990013 -0.134074
vn -0.082862 0.990013 -0.114050
vn -0.114050 0.990013 -0.082862
vn -0.134074 0.990013 -0.043563
vn -0.140974 0.990013 -0.000000
vn 0.951057 0.000000 -0.309016
vn 0.809017 0.000000 -0.587785
vn 0.809017 0.000000 -0.587785
vn 0.951057 0.000000 -0.309016
vn 1.000000 0.000000 0.000001
vn 1.000000 0.000000 0.000001
vn 0.951056 0.000000 0.309017
vn 0.951056 0.000000 0.309017
vn 0.809017 0.000000 0.587785
vn 0.809017 0.000000 0.587785
vn 0.587786 0.000000 0.809017
vn 0.587786 0.000000 0.809017
vn 0.309017 0.000000 0.951056
vn 0.309017 0.000000 0.951056
vn -0.000000 0.000000 1.000000
vn -0.000000 0.000000 1.000000
vn -0.309017 0.000000 0.951057
vn -0.309017 0.000000 0.951057
vn -0.587785 0.000000 0.809017
vn -0.587785 0.000000 0.809017
vn -0.809017 0.000000 0.587785
vn -0.809017 0.000000 0.587785
vn -0.951057 0.000000 0.309017
vn -0.951056 0.000000 0.309017
vn -1.000000 0.000000 0.000000
vn -1.000000 0.000000 0.000000
vn -0.951057 0.000000 -0.309017
vn -0.951057 0.000000 -0.309017
vn -0.809017 0.000000 -0.587785
vn -0.809017 0.000000 -0.587785
vn -0.587786 0.000000 -0.809017
vn -0.587786 0.000000 -0.809017
vn -0.309017 0.000000 -0.951056
vn -0.309017 0.000000 -0.951056
vn -0.000000 0.000000 -1.000000
vn -0.000000 0.000000 -1.000000
vn 0.309016 0.000000 -0.951057
vn 0.309016 0.000000 -0.951057
vn 0.587785 0.000000 -0.809017
vn 0.587785 0.000000 -0.809017
vn 0.342388 -0.932949 -0.111248
vn 0.291252 -0.932949 -0.211607
vn 0.177835 -0.975541 -0.129205
vn 0.209058 -0.975541 -0.067927
vn -0.204917 0.976512 0.066581
vn -0.174313 0.976512 0.126645
vn 0.360008 -0.932949 0.000000
vn 0.219816 -0.975541 0.000000
vn -0.215462 0.976512 -0.000000
vn 0.342388 -0.932949 0.111249
vn 0.209058 -0.975541 0.067927
vn -0.204917 0.976512 -0.066581
vn 0.291253 -0.932949 0.211608
vn 0.177835 -0.975541 0.129205
vn -0.174312 0.976512 -0.126645
vn 0.211607 -0.932949 0.291253
vn 0.129205 -0.975541 0.177835
vn -0.126645 0.976512 -0.174312
vn 0.111249 -0.932949 0.342388
vn 0.067927 -0.975541 0.209057
vn -0.066581 0.976512 -0.204917
vn 0.000000 -0.932949 0.360008
vn 0.000000 -0.975541 0.219816
vn -0.000000 0.976512 -0.215462
vn -0.111249 -0.932949 0.342388
vn -0.067927 -0.975541 0.209057
vn 0.066581 0.976512 -0.204917
vn -0.211607 -0.932949 0.291253
vn -0.129205 -0.975541 0.177835
vn 0.126645 0.976512 -0.174313
vn -0.291252 -0.932949 0.211608
vn -0.177835 -0.975541 0.129205
vn 0.174312 0.976512 -0.126646
vn -0.342388 -0.932949 0.111249
vn -0.209057 -0.975541 0.067927
vn 0.204916 0.976512 -0.066582
vn -0.360008 -0.932949 -0.000000
vn -0.219816 -0.975541 0.000000
vn 0.215462 0.976512 -0.000000
vn -0.342387 -0.932949 -0.111248
vn -0.209057 -0.975541 -0.067927
vn 0.204916 0.976512 0.066582
vn -0.291252 -0.932949 -0.211607
vn -0.177835 -0.975541 -0.129205
vn 0.174312 0.976512 0.126646
vn -0.211607 -0.932949 -0.291253
vn -0.129205 -0.975541 -0.177835
vn 0.126645 0.976512 0.174313
vn -0.111249 -0.932949 -0.342388
vn -0.067927 -0.975541 -0.209057
vn 0.066581 0.976512 0.204917
vn -0.000000 -0.932949 -0.360008
vn 0.000000 -0.975541 -0.219816
vn 0.000000 0.976512 0.215462
vn 0.111249 -0.932949 -0.342388
vn 0.067927 -0.975541 -0.209058
vn -0.066581 0.976512 0.204917
vn 0.211607 -0.932949 -0.291253
vn 0.129205 -0.975541 -0.177835
vn -0.126645 0.976512 0.174313
vn 0.164958 -0.978992 -0.119849
vn 0.193920 -0.978992 -0.063008
vn -0.193920 0.978992 0.063008
vn -0.164958 0.978992 0.119849
vn 0.203899 -0.978992 0.000000
vn -0.203899 0.978992 -0.000000
vn 0.193920 -0.978992 0.063008
vn -0.193920 0.978992 -0.063008
vn 0.164958 -0.978992 0.119849
vn -0.164958 0.978992 -0.119849
vn 0.119849 -0.978992 0.164958
vn -0.119849 0.978992 -0.164958
vn 0.063008 -0.978992 0.193920
vn -0.063008 0.978992 -0.193920
vn 0.000000 -0.978992 0.203899
vn -0.000000 0.978992 -0.203899
vn -0.063008 -0.978992 0.193920
vn 0.063008 0.978992 -0.193920
vn -0.119849 -0.978992 0.164958
vn 0.119849 0.978992 -0.164958
vn -0.164958 -0.978992 0.119849
vn 0.164958 0.978992 -0.119849
vn -0.193920 -0.978992 0.063009
vn 0.193920 0.978992 -0.063009
vn -0.203899 -0.978992 0.000000
vn 0.203899 0.978992 -0.000000
vn -0.193919 -0.978992 -0.063009
vn 0.193919 0.978992 0.063009
vn -0.164958 -0.978992 -0.119849
vn 0.164958 0.978992 0.119849
vn -0.119849 -0.978992 -0.164958
vn 0.119849 0.978992 0.164958
vn -0.063008 -0.978992 -0.193920
vn 0.063008 0.978992 0.193920
vn 0.000000 -0.978992 -0.203899
vn 0.000000 0.978992 0.203899
vn 0.063008 -0.978992 -0.193920
vn -0.063008 0.978992 0.193920
vn 0.119849 -0.978992 -0.164958
vn -0.119849 0.978992 0.164958
s 1
g Plate
f 1/21/1 2/22/2 43/23/3 44/24/4
f 2/22/2 3/25/5 62/26/6 43/23/3
f 3/25/5 4/27/7 61/28/8 62/26/6
f 4/27/7 5/29/9 60/30/10 61/28/8
f 5/29/9 6/31/11 59/32/12 60/30/10
f 6/31/11 7/33/13 58/34/14 59/32/12
f 7/33/13 8/35/15 57/36/16 58/34/14
f 8/35/15 9/37/17 56/38/18 57/36/16
f 9/37/17 10/39/19 55/40/20 56/38/18
f 10/39/19 11/41/21 54/42/22 55/40/20
f 11/41/21 12/43/23 53/44/24 54/42/22
f 12/43/23 13/45/25 52/46/26 53/44/24
f 13/45/25 14/47/27 51/48/28 52/46/26
f 14/47/27 15/49/29 50/50/30 51/48/28
f 15/49/29 16/51/31 49/52/32 50/50/30
f 16/51/31 17/53/33 48/54/34 49/52/32
f 17/53/33 18/55/35 47/56/36 48/54/34
f 18/55/35 19/57/37 46/58/38 47/56/36
f 19/57/37 20/59/39 45/60/40 46/58/38
f 20/59/39 1/21/1 44/24/4 45/60/40
s 2
f 2/2/41 1/1/42 41/83/43
f 3/3/44 2/2/41 41/83/43
f 4/4/45 3/3/44 41/83/43
f 5/5/46 4/4/45 41/83/43
f 6/6/47 5/5/46 41/83/43
f 7/7/48 6/6/47 41/83/43
f 8/8/49 7/7/48 41/83/43
f 9/9/50 8/8/49 41/83/43
f 10/10/51 9/9/50 41/83/43
f 11/11/52 10/10/51 41/83/43
f 12/12/53 11/11/52 41/83/43
f 13/13/54 12/12/53 41/83/43
f 14/14/55 13/13/54 41/83/43
f 15/15/56 14/14/55 41/83/43
f 16/16/57 15/15/56 41/83/43
f 17/17/58 16/16/57 41/83/43
f 18/18/59 17/17/58 41/83/43
f 19/19/60 18/18/59 41/83/43
f 20/20/61 19/19/60 41/83/43
f 1/1/42 20/20/61 41/83/43
s 3
f 21/63/62 22/64/63 42/65/64
f 22/64/63 23/66/65 42/65/64
f 23/66/65 24/67/66 42/65/64
f 24/67/66 25/68/67 42/65/64
f 25/68/67 26/69/68 42/65/64
f 26/69/68 27/70/69 42/65/64
f 27/70/69 28/71/70 42/65/64
f 28/71/70 29/72/71 42/65/64
f 29/72/71 30/73/72 42/65/64
f 30/73/72 31/74/73 42/65/64
f 31/74/73 32/75/74 42/65/64
f 32/75/74 33/76/75 42/65/64
f 33/76/75 34/77/76 42/65/64
f 34/77/76 35/78/77 42/65/64
f 35/78/77 36/79/78 42/65/64
f 36/79/78 37/80/79 42/65/64
f 37/80/79 38/81/80 42/65/64
f 38/81/80 39/82/81 42/65/64
f 39/82/81 40/84/82 42/65/64
f 40/84/82 21/63/62 42/65/64
s 4
f 104/61/83 103/62/84 105/190/85 106/191/86
f 107/192/87 104/61/83 106/191/86 108/193/88
f 109/194/89 107/192/87 108/193/88 110/195/90
f 111/196/91 109/194/89 110/195/90 112/197/92
f 113/198/93 111/196/91 112/197/92 114/199/94
f 115/200/95 113/198/93 114/199/94 116/201/96
f 117/202/97 115/200/95 116/201/96 118/203/98
f 119/204/99 117/202/97 118/203/98 120/205/100
f 121/206/101 119/204/99 120/205/100 122/207/102
f 123/208/103 121/206/101 122/207/102 124/209/104
f 125/210/105 123/208/103 124/209/104 126/211/106
f 127/212/107 125/210/105 126/211/106 128/213/108
f 129/214/109 127/212/107 128/213/108 130/215/110
f 131/216/111 129/214/109 130/215/110 132/217/112
f 133/218/113 131/216/111 132/217/112 134/219/114
f 135/220/115 133/218/113 134/219/114 136/221/116
f 137/222/117 135/220/115 136/221/116 138/223/118
f 139/224/119 137/222/117 138/223/118 140/225/120
f 141/226/121 139/224/119 140/225/120 142/227/122
f 103/62/84 141/226/121 142/227/122 105/190/85
s 5
f 44/87/123 43/85/124 63/107/125 64/106/126
s 3
f 22/228/63 21/229/62 66/230/127 65/231/128
s 5
f 45/88/129 44/86/123 64/111/126 67/110/130
s 3
f 21/229/62 40/232/82 68/233/131 66/230/127
s 5
f 46/89/132 45/88/129 67/110/130 69/114/133
s 3
f 40/232/82 39/234/81 70/235/134 68/233/131
s 5
f 47/90/135 46/89/132 69/114/133 71/116/136
s 3
f 39/234/81 38/236/80 72/237/137 70/235/134
s 5
f 48/91/138 47/90/135 71/116/136 73/118/139
s 3
f 38/236/80 37/238/79 74/239/140 72/237/137
s 5
f 49/92/141 48/91/138 73/118/139 75/120/142
s 3
f 37/238/79 36/240/78 76/241/143 74/239/140
s 5
f 50/93/144 49/92/141 75/120/142 77/122/145
s 3
f 36/240/78 35/242/77 78/243/146 76/241/143
s 5
f 51/94/147 50/93/144 77/122/145 79/124/148
s 3
f 35/242/77 34/244/76 80/245/149 78/243/146
s 5
f 52/95/150 51/94/147 79/124/148 81/126/151
s 3
f 34/244/76 33/246/75 82/247/152 80/245/149
s 5
f 53/96/153 52/95/150 81/126/151 83/128/154
s 3
f 33/246/75 32/248/74 84/249/155 82/247/152
s 5
f 54/97/156 53/96/153 83/128/154 85/130/157
s 3
f 32/248/74 31/250/73 86/251/158 84/249/155
s 5
f 55/98/159 54/97/156 85/130/157 87/132/160
s 3
f 31/250/73 30/252/72 88/253/161 86/251/158
s 5
f 56/99/162 55/98/159 87/132/160 89/134/163
s 3
f 30/252/72 29/254/71 90/255/164 88/253/161
s 5
f 57/100/165 56/99/162 89/134/163 91/136/166
s 3
f 29/254/71 28/256/70 92/257/167 90/255/164
s 5
f 58/101/168 57/100/165 91/136/166 93/138/169
s 3
f 28/256/70 27/258/69 94/259/170 92/257/167
s 5
f 59/102/171 58/101/168 93/138/169 95/140/172
s 3
f 27/258/69 26/260/68 96/261/173 94/259/170
s 5
f 60/103/174 59/102/171 95/140/172 97/142/175
s 3
f 26/260/68 25/262/67 98/263/176 96/261/173
s 5
f 61/104/177 60/103/174 97/142/175 99/144/178
s 3
f 25/262/67 24/264/66 100/265/179 98/263/176
s 5
f 62/105/180 61/104/177 99/144/178 101/146/181
s 3
f 24/264/66 23/266/65 102/267/182 100/265/179
s 5
f 43/85/124 62/105/180 101/146/181 63/107/125
s 3
f 23/266/65 22/228/63 65/231/128 102/267/182
s 5
f 64/106/126 63/107/125 103/149/183 104/148/184
s 3
f 65/108/128 66/109/127 106/151/185 105/150/186
s 5
f 67/110/130 64/111/126 104/153/184 107/152/187
s 3
f 66/112/127 68/113/131 108/155/188 106/154/185
s 5
f 69/114/133 67/110/130 107/152/187 109/156/189
s 3
f 68/113/131 70/115/134 110/157/190 108/155/188
s 5
f 71/116/136 69/114/133 109/156/189 111/158/191
s 3
f 70/115/134 72/117/137 112/159/192 110/157/190
s 5
f 73/118/139 71/116/136 111/158/191 113/160/193
s 3
f 72/117/137 74/119/140 114/161/194 112/159/192
s 5
f 75/120/142 73/118/139 113/160/193 115/162/195
s 3
f 74/119/140 76/121/143 116/163/196 114/161/194
s 5
f 77/122/145 75/120/142 115/162/195 117/164/197
s 3
f 76/121/143 78/123/146 118/165/198 116/163/196
s 5
f 79/124/148 77/122/145 117/164/197 119/166/199
s 3
f 78/123/146 80/125/149 120/167/200 118/165/198
s 5
f 81/126/151 79/124/148 119/166/199 121/168/201
s 3
f 80/125/149 82/127/152 122/169/202 120/167/200
s 5
f 83/128/154 81/126/151 121/168/201 123/170/203
s 3
f 82/127/152 84/129/155 124/171/204 122/169/202
s 5
f 85/130/157 83/128/154 123/170/203 125/172/205
s 3
f 84/129/155 86/131/158 126/173/206 124/171/204
s 5
f 87/132/160 85/130/157 125/172/205 127/174/207
s 3
f 86/131/158 88/133/161 128/175/208 126/173/206
s 5
f 89/134/163 87/132/160 127/174/207 129/176/209
s 3
f 88/133/161 90/135/164 130/177/210 128/175/208
s 5
f 91/136/166 89/134/163 129/176/209 131/178/211
s 3
f 90/135/164 92/137/167 132/179/212 130/177/210
s 5
f 93/138/169 91/136/166 131/178/211 133/180/213
s 3
f 92/137/167 94/139/170 134/181/214 132/179/212
s 5
f 95/140/172 93/138/169 133/180/213 135/182/215
s 3
f 94/139/170 96/141/173 136/183/216 134/181/214
s 5
f 97/142/175 95/140/172 135/182/215 137/184/217
s 3
f 96/141/173 98/143/176 138/185/218 136/183/216
s 5
f 99/144/178 97/142/175 137/184/217 139/186/219
s 3
f 98/143/176 100/145/179 140/187/220 138/185/218
s 5
f 101/146/181 99/144/178 139/186/219 141/188/221
s 3
f 100/145/179 102/147/182 142/189/222 140/187/220
s 5
f 63/107/125 101/146/181 141/188/221 103/149/183
s 3
f 102/147/182 65/108/128 105/150/186 142/189/222
